<svg version="1.1" viewBox="0 0 388.45 388.45" xmlns="http://www.w3.org/2000/svg" xmlns:xlink="http://www.w3.org/1999/xlink" id="Ebene_1" overflow="hidden"><g><g><rect x="0" y="0" width="388.45" height="388.45" fill="#FF0000"/><g><path d=" M 69.91 153.34 L 34.59 153.34 L 34.59 99.72 L 69.91 99.72 L 69.91 109.06 L 45.06 109.06 L 45.06 121.64 L 66.22 121.64 L 66.22 130.98 L 45.06 130.98 L 45.06 144 L 69.91 144 L 69.91 153.34 Z" fill="#FFFFFF"/><path d=" M 90.63 153.34 L 80.16 153.34 L 80.16 99.72 L 90.63 99.72 L 90.63 153.34 Z" fill="#FFFFFF"/><path d=" M 144.18 153.34 L 134.84 153.34 L 113.6 120.42 L 113.6 153.34 L 103.13 153.34 L 103.13 99.72 L 112.47 99.72 L 133.71 132.56 L 133.71 99.72 L 144.18 99.72 L 144.18 153.34 Z" fill="#FFFFFF"/><path d=" M 191.4 137.53 C 191.4 142.6 189.53 146.58 185.79 149.47 C 182.05 152.36 177.29 153.8 171.52 153.8 C 163.13 153.8 156.61 151.44 151.94 146.72 L 158.72 139.94 C 161.73 142.95 166.05 144.46 171.68 144.46 C 178.01 144.46 181.17 142.25 181.17 137.83 C 181.17 135.82 180.64 134.33 179.59 133.35 C 178.53 132.37 176.93 131.73 174.77 131.43 L 168.29 130.53 C 158.8 129.22 154.06 124.23 154.06 115.54 C 154.06 110.67 155.74 106.74 159.1 103.75 C 162.46 100.76 167.01 99.27 172.73 99.27 C 179.96 99.27 185.73 101.36 190.05 105.52 L 183.42 112.07 C 180.86 109.61 177.19 108.38 172.43 108.38 C 169.77 108.38 167.72 109.02 166.29 110.3 C 164.86 111.58 164.14 113.2 164.14 115.16 C 164.14 116.72 164.71 118.02 165.84 119.08 C 166.97 120.13 168.59 120.81 170.7 121.11 L 177.03 122.01 C 181.6 122.67 185.01 124.04 187.27 126.15 C 190.02 128.76 191.4 132.56 191.4 137.53 Z" fill="#FFFFFF"/><path d=" M 235.69 109.06 L 221.68 109.06 L 221.68 153.35 L 211.21 153.35 L 211.21 109.06 L 197.2 109.06 L 197.2 99.72 L 235.69 99.72 L 235.69 109.06 Z" fill="#FFFFFF"/><path d=" M 279.52 153.34 L 244.2 153.34 L 244.2 99.72 L 279.53 99.72 L 279.53 109.06 L 254.67 109.06 L 254.67 121.64 L 275.84 121.64 L 275.84 130.98 L 254.67 130.98 L 254.67 144 L 279.53 144 L 279.53 153.34 Z" fill="#FFFFFF"/><path d=" M 300.24 153.34 L 289.77 153.34 L 289.77 99.72 L 300.24 99.72 L 300.24 153.34 Z" fill="#FFFFFF"/><path d=" M 353.79 153.34 L 344.45 153.34 L 323.21 120.42 L 323.21 153.34 L 312.74 153.34 L 312.74 99.72 L 322.08 99.72 L 343.32 132.56 L 343.32 99.72 L 353.79 99.72 L 353.79 153.34 Z" fill="#FFFFFF"/></g><g><path d=" M 73.7 204.56 C 72.8 210.01 70.52 214.21 66.88 217.16 C 63.43 220.01 59.15 221.43 54.06 221.43 C 48.36 221.43 43.56 219.48 39.66 215.58 C 37.26 213.18 35.71 210.11 35.01 206.36 C 34.61 204.16 34.41 200.14 34.41 194.29 C 34.41 188.44 34.61 184.42 35.01 182.22 C 35.71 178.47 37.26 175.4 39.66 173 C 43.56 169.1 48.36 167.15 54.06 167.15 C 59.21 167.15 63.54 168.6 67.07 171.5 C 70.6 174.4 72.81 178.58 73.71 184.02 L 63.12 184.02 C 61.87 178.97 58.87 176.45 54.12 176.45 C 50.97 176.45 48.55 177.63 46.85 179.97 C 45.5 181.87 44.83 186.64 44.83 194.29 C 44.83 198.44 44.88 201.04 44.98 202.09 C 45.33 205.44 46.15 207.86 47.45 209.36 C 49.1 211.21 51.32 212.14 54.12 212.14 C 58.87 212.14 61.87 209.61 63.12 204.56 L 73.7 204.56 Z" fill="#FFFFFF"/><path d=" M 117.86 220.98 L 82.7 220.98 L 82.7 167.59 L 117.86 167.59 L 117.86 176.89 L 93.12 176.89 L 93.12 189.41 L 114.19 189.41 L 114.19 198.71 L 93.12 198.71 L 93.12 211.68 L 117.86 211.68 L 117.86 220.98 Z" fill="#FFFFFF"/><path d=" M 168.93 220.98 L 159.63 220.98 L 138.48 188.21 L 138.48 220.98 L 128.06 220.98 L 128.06 167.59 L 137.36 167.59 L 158.5 200.28 L 158.5 167.59 L 168.92 167.59 L 168.92 220.98 Z" fill="#FFFFFF"/><path d=" M 215.72 176.89 L 201.77 176.89 L 201.77 220.98 L 191.35 220.98 L 191.35 176.89 L 177.4 176.89 L 177.4 167.59 L 215.72 167.59 L 215.72 176.89 Z" fill="#FFFFFF"/><path d=" M 259.36 220.98 L 224.19 220.98 L 224.19 167.59 L 259.36 167.59 L 259.36 176.89 L 234.62 176.89 L 234.62 189.41 L 255.69 189.41 L 255.69 198.71 L 234.62 198.71 L 234.62 211.68 L 259.36 211.68 L 259.36 220.98 Z" fill="#FFFFFF"/><path d=" M 309.97 220.98 L 297.9 220.98 L 287.48 199.68 L 279.98 199.68 L 279.98 220.98 L 269.56 220.98 L 269.56 167.59 L 290.48 167.59 C 295.78 167.59 300.03 169.19 303.23 172.39 C 306.27 175.44 307.8 179.29 307.8 183.94 C 307.8 187.49 306.83 190.54 304.88 193.09 C 303.13 195.34 300.86 196.97 298.06 197.97 L 309.97 220.98 Z M 297.37 183.9 C 297.37 181.81 296.67 180.12 295.27 178.83 C 293.87 177.54 292.04 176.89 289.8 176.89 L 279.98 176.89 L 279.98 190.91 L 289.8 190.91 C 292.05 190.91 293.87 190.26 295.27 188.97 C 296.67 187.68 297.37 185.99 297.37 183.9 Z" fill="#FFFFFF"/></g></g><g><path d=" M 56.71 264.6 C 56.71 268.03 56.62 270.27 56.45 271.34 C 56.08 273.7 55.13 275.65 53.6 277.17 C 51.64 279.13 48.93 280.11 45.48 280.11 L 34.38 280.11 L 34.38 249.35 L 45.48 249.35 C 48.94 249.35 51.64 250.33 53.6 252.29 C 55.13 253.82 56.08 255.72 56.45 257.99 C 56.63 259.03 56.71 261.23 56.71 264.6 Z M 50.71 264.6 C 50.71 262.12 50.64 260.38 50.49 259.37 C 50.32 258.19 49.96 257.27 49.41 256.61 C 48.37 255.34 46.88 254.71 44.92 254.71 L 40.38 254.71 L 40.38 274.75 L 44.92 274.75 C 46.88 274.75 48.38 274.12 49.41 272.85 C 49.96 272.19 50.32 271.22 50.49 269.96 C 50.64 268.89 50.71 267.1 50.71 264.6 Z" fill="#FFFFFF"/><path d=" M 68.03 253.8 L 62.37 253.8 L 62.37 249.22 L 68.03 249.22 L 68.03 253.8 Z M 68.03 280.11 L 62.37 280.11 L 62.37 257.6 L 68.03 257.6 L 68.03 280.11 Z" fill="#FFFFFF"/><path d=" M 92.01 279.29 C 92.01 282.03 91.11 284.26 89.31 286.01 C 87.51 287.75 85.11 288.62 82.12 288.62 C 78.72 288.62 76 287.64 73.96 285.68 L 77.46 282.14 C 78.64 283.29 80.11 283.87 81.87 283.87 C 83.43 283.87 84.61 283.38 85.41 282.4 C 86.07 281.56 86.4 280.5 86.4 279.2 L 86.4 276.91 C 85.05 278.41 83.26 279.16 81.04 279.16 C 78.79 279.16 77.01 278.5 75.68 277.17 C 74.7 276.19 74.05 274.92 73.74 273.37 C 73.51 272.25 73.39 270.53 73.39 268.23 C 73.39 265.93 73.5 264.21 73.74 263.09 C 74.06 261.56 74.7 260.31 75.68 259.33 C 77 258.01 78.8 257.34 81.08 257.34 C 83.33 257.34 85.15 258.13 86.57 259.72 L 86.57 257.6 L 92.01 257.6 L 92.01 279.29 Z M 86.39 268.23 C 86.39 266.47 86.2 265.18 85.83 264.34 C 85.29 263.04 84.24 262.4 82.69 262.4 C 81.2 262.4 80.19 263 79.64 264.21 C 79.24 265.05 79.04 266.38 79.04 268.23 C 79.04 270.07 79.24 271.43 79.64 272.29 C 80.18 273.5 81.2 274.1 82.69 274.1 C 84.24 274.1 85.28 273.45 85.83 272.16 C 86.21 271.29 86.39 269.98 86.39 268.23 Z" fill="#FFFFFF"/><path d=" M 103.89 253.8 L 98.23 253.8 L 98.23 249.22 L 103.89 249.22 L 103.89 253.8 Z M 103.89 280.11 L 98.23 280.11 L 98.23 257.6 L 103.89 257.6 L 103.89 280.11 Z" fill="#FFFFFF"/><path d=" M 120.3 280.11 L 117.23 280.11 C 115.1 280.11 113.44 279.43 112.26 278.08 C 111.22 276.9 110.7 275.43 110.7 273.67 L 110.7 262.52 L 108.32 262.52 L 108.32 258.24 L 110.7 258.24 L 110.7 251.59 L 116.36 251.59 L 116.36 258.24 L 120.29 258.24 L 120.29 262.52 L 116.36 262.52 L 116.36 273.32 C 116.36 274.67 117 275.35 118.28 275.35 L 120.29 275.35 L 120.29 280.11 Z" fill="#FFFFFF"/><path d=" M 142.42 280.11 L 136.93 280.11 L 136.93 278.17 C 135.49 279.61 133.65 280.33 131.4 280.33 C 128.87 280.33 126.96 279.68 125.7 278.39 C 124.43 277.09 123.8 275.39 123.8 273.29 C 123.8 271.39 124.45 269.83 125.76 268.6 C 127.07 267.38 128.97 266.76 131.47 266.76 L 136.77 266.76 L 136.77 265.64 C 136.77 263.28 135.38 262.1 132.59 262.1 C 130.78 262.1 129.35 262.72 128.29 263.96 L 124.72 260.46 C 125.79 259.28 126.95 258.46 128.22 258 C 129.37 257.57 130.91 257.35 132.84 257.35 C 139.23 257.35 142.43 260 142.43 265.3 L 142.43 280.11 Z M 136.76 271.81 L 136.76 270.6 L 132.34 270.6 C 130.25 270.6 129.2 271.45 129.2 273.15 C 129.2 274.88 130.27 275.74 132.42 275.74 C 134.34 275.74 135.61 275.26 136.24 274.31 C 136.59 273.8 136.76 272.96 136.76 271.81 Z" fill="#FFFFFF"/><path d=" M 157.97 280.11 L 154.77 280.11 C 152.61 280.11 150.94 279.43 149.76 278.08 C 148.72 276.9 148.2 275.43 148.2 273.67 L 148.2 249.35 L 153.86 249.35 L 153.86 273.33 C 153.86 274.68 154.52 275.36 155.83 275.36 L 157.97 275.36 L 157.97 280.11 Z" fill="#FFFFFF"/><path d=" M 193.18 254.71 L 178.92 254.71 L 178.92 262.27 L 191.06 262.27 L 191.06 267.63 L 178.92 267.63 L 178.92 280.11 L 172.92 280.11 L 172.92 249.35 L 193.18 249.35 L 193.18 254.71 Z" fill="#FFFFFF"/><path d=" M 216.47 280.11 L 210.98 280.11 L 210.98 278.04 C 209.51 279.59 207.64 280.37 205.36 280.37 C 203.14 280.37 201.37 279.71 200.05 278.38 C 198.52 276.85 197.76 274.72 197.76 271.99 L 197.76 257.6 L 203.42 257.6 L 203.42 271.21 C 203.42 272.62 203.82 273.69 204.62 274.41 C 205.27 275.01 206.1 275.32 207.1 275.32 C 208.12 275.32 208.96 275.02 209.62 274.41 C 210.42 273.69 210.82 272.62 210.82 271.21 L 210.82 257.6 L 216.48 257.6 L 216.48 280.11 Z" fill="#FFFFFF"/><path d=" M 232.88 280.11 L 229.81 280.11 C 227.68 280.11 226.02 279.43 224.84 278.08 C 223.8 276.9 223.28 275.43 223.28 273.67 L 223.28 262.52 L 220.9 262.52 L 220.9 258.24 L 223.28 258.24 L 223.28 251.59 L 228.94 251.59 L 228.94 258.24 L 232.87 258.24 L 232.87 262.52 L 228.94 262.52 L 228.94 273.32 C 228.94 274.67 229.58 275.35 230.86 275.35 L 232.87 275.35 L 232.87 280.11 Z" fill="#FFFFFF"/><path d=" M 256.43 280.11 L 250.94 280.11 L 250.94 278.04 C 249.47 279.59 247.6 280.37 245.32 280.37 C 243.1 280.37 241.33 279.71 240.01 278.38 C 238.48 276.85 237.72 274.72 237.72 271.99 L 237.72 257.6 L 243.38 257.6 L 243.38 271.21 C 243.38 272.62 243.78 273.69 244.58 274.41 C 245.23 275.01 246.06 275.32 247.06 275.32 C 248.08 275.32 248.92 275.02 249.58 274.41 C 250.38 273.69 250.78 272.62 250.78 271.21 L 250.78 257.6 L 256.44 257.6 L 256.44 280.11 Z" fill="#FFFFFF"/><path d=" M 279.15 259.46 L 274.92 263.74 C 274.03 262.85 273.03 262.4 271.94 262.4 C 270.99 262.4 270.17 262.73 269.48 263.39 C 268.7 264.17 268.31 265.22 268.31 266.54 L 268.31 280.1 L 262.69 280.1 L 262.69 257.6 L 268.18 257.6 L 268.18 259.76 C 269.53 258.15 271.42 257.34 273.84 257.34 C 275.97 257.34 277.74 258.05 279.15 259.46 Z" fill="#FFFFFF"/><path d=" M 300.83 270.6 L 286.75 270.6 C 286.75 272.1 287.19 273.31 288.07 274.23 C 288.95 275.15 290.15 275.61 291.68 275.61 C 293.67 275.61 295.37 274.9 296.78 273.49 L 300.19 276.82 C 298.95 278.06 297.74 278.94 296.56 279.45 C 295.21 280.06 293.57 280.36 291.64 280.36 C 284.7 280.36 281.23 276.52 281.23 268.83 C 281.23 265.23 282.14 262.39 283.95 260.32 C 285.71 258.33 288.07 257.34 291.03 257.34 C 294.08 257.34 296.5 258.36 298.29 260.41 C 299.99 262.37 300.84 264.93 300.84 268.1 L 300.84 270.6 Z M 295.31 266.76 C 295.28 265.84 295.11 265.03 294.79 264.34 C 294.1 262.78 292.85 262.01 291.03 262.01 C 289.22 262.01 287.96 262.79 287.27 264.34 C 286.95 265.03 286.78 265.84 286.75 266.76 L 295.31 266.76 Z" fill="#FFFFFF"/></g></g><g></g><g></g><g></g><g></g><g></g><g></g></svg>